<?xml version="1.0" encoding="UTF-8" standalone="no"?>
<!-- Created with Inkscape (http://www.inkscape.org/) -->

<svg
   xmlns:dc="http://purl.org/dc/elements/1.1/"
   xmlns:cc="http://creativecommons.org/ns#"
   xmlns:rdf="http://www.w3.org/1999/02/22-rdf-syntax-ns#"
   xmlns:svg="http://www.w3.org/2000/svg"
   xmlns="http://www.w3.org/2000/svg"
   xmlns:sodipodi="http://sodipodi.sourceforge.net/DTD/sodipodi-0.dtd"
   xmlns:inkscape="http://www.inkscape.org/namespaces/inkscape"
   width="744.09448819"
   height="1052.3622047"
   id="svg4068"
   version="1.1"
   inkscape:version="0.48+devel r9772"
   sodipodi:docname="New document 8">
  <defs
     id="defs4070" />
  <sodipodi:namedview
     id="base"
     pagecolor="#ffffff"
     bordercolor="#666666"
     borderopacity="1.0"
     inkscape:pageopacity="0.0"
     inkscape:pageshadow="2"
     inkscape:zoom="0.66136926"
     inkscape:cx="372.04724"
     inkscape:cy="526.18109"
     inkscape:document-units="px"
     inkscape:current-layer="layer1"
     showgrid="false"
     inkscape:window-width="1440"
     inkscape:window-height="851"
     inkscape:window-x="0"
     inkscape:window-y="1"
     inkscape:window-maximized="1" />
  <metadata
     id="metadata4073">
    <rdf:RDF>
      <cc:Work
         rdf:about="">
        <dc:format>image/svg+xml</dc:format>
        <dc:type
           rdf:resource="http://purl.org/dc/dcmitype/StillImage" />
        <dc:title></dc:title>
      </cc:Work>
    </rdf:RDF>
  </metadata>
  <g
     inkscape:label="Layer 1"
     inkscape:groupmode="layer"
     id="layer1">
    <g
       id="g4245"
       transform="matrix(1.1823416,0,0,1.1823416,-104.10511,-162.67393)">
      <path
         id="path4241"
         d="m 433.62015,871.63883 c 16.45938,-9.525 33.38836,-19.25358 37.61969,-21.61908 4.23148,-2.36548 7.6942,-4.65506 7.69493,-5.08797 8.8e-4,-0.4329 -4.39329,-3.3148 -9.76493,-6.40423 l -9.76641,-5.61717 8.39979,-4.76078 c 12.44672,-7.0546 12.46036,-7.11465 2.82337,-12.55203 -15.35673,-8.66463 -15.1483,-7.54652 -2.7325,-14.65023 6.07328,-3.47485 11.03775,-6.69497 11.03247,-7.1558 0,-0.46083 -4.62238,-3.34992 -10.2599,-6.42016 -5.63752,-3.07027 -10.25008,-5.83475 -10.25008,-6.14333 0,-0.30857 4.61256,-3.07306 10.25008,-6.14332 5.63752,-3.07025 10.25448,-6.01616 10.2599,-6.54643 0,-0.53029 -5.59648,-4.11103 -12.44863,-7.95719 -6.85215,-3.84616 -12.45845,-7.38912 -12.45845,-7.87323 0,-0.48412 5.6063,-4.11991 12.45845,-8.07951 6.85215,-3.9596 12.44394,-7.56778 12.42635,-8.01816 -0.0176,-0.45038 -6.11856,-4.23702 -13.55772,-8.41475 -21.73751,-12.20752 -21.39058,-9.79351 -3.4529,-24.02768 8.55808,-6.7911 15.56398,-12.76968 15.56852,-13.28572 0,-0.51605 -6.42226,-3.62899 -14.28208,-6.91766 -47.34593,-19.81015 -59.17677,-25.09175 -54.59734,-24.37341 26.92448,4.22339 33.83863,4.6829 35.08066,2.33148 0.68199,-1.29115 6.58891,-15.34685 13.12652,-31.2349 l 11.88654,-28.88734 0,-23.51145 c 0,-12.93129 0.22396,-23.51145 0.49761,-23.51145 1.91918,0 54.883,22.95838 55.05698,23.86566 0.12165,0.63103 -8.53682,8.25904 -19.23952,16.95114 l -19.45951,15.80383 -0.38944,42.31352 c -0.22762,24.73598 0.17764,42.88042 0.97528,43.67817 0.84248,0.84238 3.35777,-0.15551 6.57234,-2.60747 l 5.20778,-3.97212 0.4126,17.65595 0.41274,17.65593 12.45845,-7.18762 12.45846,-7.18764 0.42608,13.47442 c 0.23436,7.41092 0.99491,14.04323 1.6901,14.73844 0.70822,0.70824 5.51543,-1.11351 10.9331,-4.14321 l 9.66908,-5.40723 0,11.0324 c 0,6.06781 0.60357,11.40542 1.34111,11.86132 0.73769,0.45591 5.84932,-1.78887 11.35918,-4.98842 l 10.01806,-5.81735 0.43458,11.29903 c 0.23891,6.21445 1.01031,11.87479 1.71399,12.57852 0.7289,0.72888 4.71868,-0.68813 9.271,-3.2927 4.39519,-2.51471 8.3756,-4.5722 8.84521,-4.5722 0.46961,0 1.04885,4.3995 1.28732,9.77666 0.23832,5.37717 1.09297,9.98998 1.89911,10.2507 0.80614,0.26072 17.95483,-9.03007 38.10821,-20.64618 l 36.64251,-21.12022 0.38783,-44.09425 c 0.2134,-24.25183 -0.0528,-44.09425 -0.592,-44.09425 -0.53894,0 -5.16557,2.34075 -10.2813,5.20168 l -9.30148,5.20169 0,-11.06449 c 0,-6.08547 -0.61105,-11.06448 -1.35783,-11.06448 -0.74677,0 -5.8584,2.61296 -11.35918,5.80659 l -10.00135,5.80658 -0.42154,-13.13508 c -0.23172,-7.22431 -0.65326,-13.1351 -0.93672,-13.1351 -0.28332,0 -5.04055,2.64668 -10.57122,5.88151 l -10.05603,5.8815 -0.42578,-11.74431 c -0.23408,-6.45937 -0.98261,-11.7443 -1.66343,-11.7443 -0.68081,0 -6.42533,2.95945 -12.76566,6.57657 l -11.52774,6.57658 -0.73285,-14.15446 c -0.40306,-7.78496 -1.39241,-14.36413 -2.19855,-14.62039 -0.80613,-0.25625 -6.41244,2.47762 -12.45845,6.07528 l -10.99275,6.54119 -0.40366,-22.68144 c -0.22205,-12.47479 -0.93116,-22.68145 -1.57592,-22.68145 -0.64476,0 -4.99467,2.96805 -9.66629,6.59566 -4.67163,3.6276 -8.74423,6.59565 -9.05041,6.59565 -0.30604,0 -0.55638,-6.55022 -0.55638,-14.55605 l 0,-14.55605 21.61908,12.35102 c 11.8905,6.79305 22.27865,12.13637 23.08478,11.87402 0.80614,-0.26233 1.79549,-6.8051 2.19855,-14.53945 l 0.73285,-14.06249 12.21867,7.21745 c 6.72038,3.9696 12.46578,7.21744 12.76786,7.21744 0.30194,0 0.7396,-5.54993 0.9725,-12.33318 l 0.42358,-12.33318 9.52706,5.6821 c 5.23988,3.12513 10.02172,5.70702 10.62632,5.73751 0.60461,0.0305 1.09928,-5.86941 1.09928,-13.1109 l 0,-13.16635 11.11382,6.5707 c 6.11256,3.61388 11.38908,6.57069 11.7256,6.57069 0.33638,0 0.61179,-5.35728 0.61179,-11.90506 0,-9.30037 0.40087,-11.59599 1.83212,-10.49238 1.00767,0.77698 5.62463,3.54442 10.25991,6.14985 l 8.42777,4.73712 0,-44.48795 0,-44.48796 -37.54611,-21.6985 c -20.6504,-11.93417 -38.09532,-21.14875 -38.76646,-20.47686 -0.67114,0.67191 -1.4188,5.6186 -1.66137,10.99265 l -0.44103,9.77099 -8.5314,-5.02993 c -4.6923,-2.76647 -9.14436,-4.65112 -9.89348,-4.18812 -0.74927,0.463 -1.36208,6.07942 -1.36208,12.48092 0,6.40151 -0.25664,11.6391 -0.5703,11.6391 -0.31381,0 -5.03805,-2.61079 -10.49867,-5.80177 -5.46061,-3.19096 -10.48049,-5.46053 -11.1553,-5.04345 -0.67481,0.41708 -1.22693,5.66614 -1.22693,11.66457 0,5.99844 -0.38373,10.90625 -0.85275,10.90625 -0.46888,0 -4.80559,-2.31679 -9.63713,-5.14843 -4.83138,-2.83163 -9.3944,-4.77141 -10.14001,-4.3106 -0.7456,0.4608 -1.35562,7.06478 -1.35562,14.67549 0,7.61071 -0.31088,13.83765 -0.69064,13.83765 -0.37991,0 -5.71096,-2.96804 -11.84682,-6.59565 -6.13571,-3.62761 -11.76107,-6.59566 -12.50066,-6.59566 -0.74443,0 -1.34449,8.24605 -1.34449,18.47808 0,15.39013 -0.34913,18.34413 -2.08862,17.67662 -1.14867,-0.44079 -7.20729,-2.9324 -13.46363,-5.5369 -10.92211,-4.54691 -11.2475,-4.82016 -8.17128,-6.86265 1.76206,-1.16995 3.20372,-2.63384 3.20372,-3.2531 0,-0.61926 -6.62833,-3.92288 -14.7297,-7.34139 l -14.72956,-6.21546 4.10323,-2.46278 c 2.25689,-1.35452 9.21501,-5.3569 15.46256,-8.89416 6.24754,-3.53728 11.35741,-6.79484 11.35522,-7.23905 -0.001,-0.44421 -5.99956,-4.19031 -13.32762,-8.32465 l -13.3238,-7.51698 10.76264,-5.95792 c 18.34588,-10.15572 18.00056,-9.16025 5.67358,-16.35965 l -10.70797,-6.25375 10.46363,-5.98019 c 5.75493,-3.28911 10.45646,-6.33945 10.44781,-6.77851 -0.0147,-0.43908 -5.02105,-3.6514 -11.13888,-7.13849 l -11.1235,-6.34018 11.46955,-6.71403 c 8.78218,-5.14087 10.96285,-7.02787 9.3069,-8.05354 -1.18941,-0.73675 -5.6938,-3.5066 -10.00956,-6.15524 l -7.84677,-4.8157 9.83441,-5.4997 c 8.04596,-4.49959 9.47297,-5.82923 7.84677,-7.3117 -1.09312,-0.9966 -18.27157,-11.14546 -38.17431,-22.55304 l -36.18683,-20.74105 -37.09824,21.34977 c -20.40402,11.74238 -37.58965,21.82749 -38.19029,22.41136 -0.60066,0.58387 3.19184,3.56758 8.42778,6.63047 5.23592,3.06289 9.51985,5.80402 9.51985,6.0914 0,0.28738 -4.32126,2.93911 -9.60281,5.89271 -5.28155,2.95362 -9.22582,5.7472 -8.76505,6.20799 0.46078,0.46077 5.46587,3.58188 11.12242,6.93578 11.44463,6.7858 11.52702,6.19433 -1.91519,13.75002 -4.63527,2.60541 -8.42777,5.33148 -8.42777,6.05791 0,0.72645 4.25183,3.76624 9.44852,6.75511 5.1967,2.98887 9.14821,5.92024 8.78116,6.51414 -0.36706,0.59392 -4.94868,3.47408 -10.18138,6.40037 -5.23271,2.9263 -9.514,5.56847 -9.514,5.8715 0,0.30304 6.00815,3.98917 13.35144,8.19142 l 13.35146,7.64045 -12.61861,7.24496 c -6.94022,3.98474 -12.61859,7.82222 -12.61859,8.52775 0,0.70555 4.78184,4.04349 10.62633,7.41768 5.84448,3.37419 13.00694,7.52556 15.91658,9.22528 l 5.29025,3.0904 -16.00952,12.97622 c -8.80524,7.13693 -15.58545,13.40029 -15.06715,13.9186 0.51831,0.5183 17.21415,7.74213 37.10188,16.05294 19.88779,8.31082 33.85108,14.78518 31.02961,14.38746 -24.18353,-3.40889 -32.5439,-4.125 -33.77582,-2.89308 -0.75946,0.75945 -6.66189,14.13354 -13.11654,29.72021 l -11.73572,28.33939 0,25.29581 0,25.2958 -28.58116,-11.83752 c -15.71964,-6.51063 -28.58116,-12.31712 -28.58116,-12.90329 0,-0.5862 8.90413,-8.16139 19.78696,-16.83378 l 19.78695,-15.76798 0,-43.71476 c 0,-25.74421 -0.5563,-43.71477 -1.35323,-43.71477 -0.7443,0 -3.38256,1.70754 -5.8628,3.79454 l -4.50957,3.79455 0,-16.1665 c 0,-9.50964 -0.62159,-16.55066 -1.50954,-17.09945 -0.83024,-0.51311 -6.65941,2.08622 -12.9537,5.77631 -6.29429,3.69008 -11.88086,6.70925 -12.41461,6.70925 -0.53375,0 -0.97046,-6.59565 -0.97046,-14.65701 0,-8.06135 -0.4313,-14.657 -0.95842,-14.657 -0.52714,0 -5.08636,2.30848 -10.13162,5.12995 -5.04528,2.82147 -9.56073,5.12995 -10.03434,5.12995 -0.47362,0 -0.86113,-4.90781 -0.86113,-10.90625 0,-5.99843 -0.49836,-11.21426 -1.10748,-11.59073 -0.60913,-0.37645 -5.39098,1.86816 -10.62633,4.98802 -5.23536,3.11986 -10.01352,5.69742 -10.61812,5.72791 -0.6046,0.0305 -1.09927,-5.55086 -1.09927,-12.40301 0,-6.85214 -0.4313,-12.45845 -0.95842,-12.45845 -0.52714,0 -5.1441,2.34075 -10.25991,5.20168 l -9.30148,5.20169 0,-11.17195 c 0,-8.66563 -0.44642,-11.06565 -1.98992,-10.69806 -1.09446,0.26063 -18.5704,10.03758 -38.83541,21.72654 l -36.84548,21.25266 -0.006,43.60459 c -0.004,33.92285 0.40113,43.59903 1.82647,43.5796 1.00767,-0.0132 5.12995,-1.9812 9.16062,-4.37211 4.03068,-2.39091 7.82318,-4.35837 8.42778,-4.37211 0.6046,-0.0132 1.09928,4.92175 1.09928,10.96776 0,6.04601 0.31078,10.99275 0.69064,10.99275 0.37985,0 5.65637,-2.93582 11.7256,-6.52405 l 11.03502,-6.52405 0,13.1197 c 0,7.21584 0.49468,13.11771 1.09928,13.11528 0.6046,-0.003 5.38645,-2.58787 10.62633,-5.74541 l 9.52705,-5.74098 0.42348,12.34106 c 0.23293,6.78758 0.67559,12.34106 0.9837,12.34106 0.3081,0 6.27053,-3.29782 13.24982,-7.3285 6.9793,-4.03068 12.96741,-7.3285 13.30691,-7.3285 0.33948,0 0.61725,6.59565 0.61725,14.657 0,8.50445 0.59754,14.65701 1.42349,14.65701 0.78292,0 6.38922,-2.93583 12.45845,-6.52406 l 11.03497,-6.52405 0,23.37961 c 0,12.85878 0.34394,23.37961 0.76432,23.37961 0.42036,0 5.03732,-3.35804 10.2599,-7.46229 l 9.49558,-7.4623 0,14.91034 0,14.91034 -4.76352,-2.8766 c -11.27528,-6.80891 -38.86129,-22.2794 -39.72723,-22.2794 -0.52028,0 -0.94596,6.59566 -0.94596,14.65701 0,8.06135 -0.42986,14.657 -0.95526,14.657 -0.52538,0 -6.10095,-2.96804 -12.39015,-6.59565 -6.2892,-3.62761 -12.09854,-6.59565 -12.90962,-6.59565 -0.83005,0 -1.66082,5.10168 -1.90043,11.67013 l -0.4257,11.67014 -10.00143,-5.80734 c -5.50077,-3.19403 -10.25788,-5.80733 -10.57132,-5.80733 -0.31345,0 -0.75954,5.87956 -0.99132,13.06568 l -0.42144,13.06567 -9.52705,-5.68173 c -5.23988,-3.12495 -10.32376,-5.70668 -11.29753,-5.73717 -1.19226,-0.0374 -1.91026,3.49421 -2.19855,10.81374 l -0.42807,10.86919 -8.49324,-5.00639 c -4.67128,-2.75351 -9.12334,-5.00638 -9.89348,-5.00638 -0.85861,0 -1.40024,16.93913 -1.40024,43.79161 l 0,43.7916 37.23701,21.43207 c 20.48037,11.78764 37.95885,21.43206 38.84107,21.43206 1.01841,0 1.60404,-3.99663 1.60404,-10.94673 l 0,-10.94673 8.6744,5.08393 c 4.77093,2.79616 9.38789,5.08393 10.2599,5.08393 1.01354,0 1.58551,-4.53143 1.58551,-12.56113 l 0,-12.56111 10.80677,5.96546 c 5.94372,3.28102 11.22025,5.96547 11.72561,5.96547 0.50535,0 0.91883,-5.27652 0.91883,-11.7256 0,-6.44908 0.29444,-11.7256 0.65432,-11.7256 0.35988,0 4.59315,2.30848 9.40726,5.12995 4.81411,2.82147 9.4664,5.12995 10.33842,5.12995 1.03118,0 1.58551,-5.12448 1.58551,-14.657 0,-8.06136 0.31279,-14.65701 0.6951,-14.65701 0.38232,0 6.15351,3.2323 12.82488,7.18289 6.67137,3.95059 12.62445,6.8797 13.22905,6.50916 0.6046,-0.37056 1.09927,-8.81001 1.09927,-18.75433 l 0,-18.08057 12.49375,5.21017 12.49375,5.21015 -3.13689,3.33909 -3.13691,3.33907 5.66659,2.40515 c 3.11661,1.32283 9.78886,4.07209 14.8272,6.10945 5.03835,2.03737 9.16063,3.92665 9.16063,4.1984 0,0.27176 -6.62237,4.24372 -14.7164,8.8266 -8.09402,4.58286 -14.47386,9.07223 -14.17744,9.97636 0.29643,0.90413 5.43478,4.43178 11.41857,7.83924 5.98378,3.40745 10.87962,6.88541 10.87962,7.72878 0,0.84338 -4.89584,4.32134 -10.87962,7.72879 -5.98379,3.40746 -11.12581,6.94607 -11.42669,7.8636 -0.30089,0.91751 3.77049,4.08274 9.04749,7.03381 5.27701,2.95107 9.59457,5.63081 9.59457,5.95496 0,0.32416 -4.28718,2.98691 -9.52706,5.91721 -5.23988,2.93032 -9.52705,5.90119 -9.52705,6.60194 0,0.70075 4.61696,4.01699 10.2599,7.3694 5.64295,3.35241 10.25991,6.3015 10.25991,6.55354 0,0.25203 -3.7925,2.59763 -8.42778,5.21244 -15.39638,8.68529 -15.09332,7.69436 -4.259,13.92571 5.27907,3.03626 9.30385,5.99693 8.94395,6.57927 -0.3599,0.58233 -4.32663,3.13129 -8.81496,5.66434 -4.48832,2.53305 -7.93703,5.27626 -7.66378,6.096 0.45391,1.36173 72.60517,43.723 74.57288,43.78308 0.46931,0.0147 14.32033,-7.76713 30.77985,-17.29215 z"
         style="fill:#333333;stroke:#ffffff"
         inkscape:connector-curvature="0" />
      <path
         id="path4239"
         d="m 365.76684,865.77297 c -19.11499,-11.02975 -34.76667,-20.38388 -34.7815,-20.78695 -0.0148,-0.40306 3.71838,-2.92273 8.29603,-5.59927 9.86536,-5.76822 6.43358,-6.83545 39.54753,12.29881 l 24.0454,13.89422 27.21263,-15.66739 27.21264,-15.66737 6.14949,3.35927 c 7.57899,4.14023 11.81003,7.17901 10.98323,7.88824 -3.16137,2.7115 -70.37165,40.5091 -71.89803,40.43382 -1.10705,-0.0547 -17.65246,-9.12363 -36.76742,-20.15338 z"
         style="fill:#333333;stroke:#ffffff"
         inkscape:connector-curvature="0" />
      <path
         id="path4237"
         d="m 367.52115,842.71307 c -18.93212,-10.92373 -34.94621,-20.38503 -35.5869,-21.02512 -0.64069,-0.64007 3.44527,-3.83285 9.07992,-7.09507 l 10.2448,-5.9313 24.98956,14.49797 c 13.74417,7.97389 25.69769,14.49797 26.56333,14.49797 0.86549,0 12.42577,-6.27056 25.68918,-13.93459 13.26342,-7.66403 24.59592,-14.08419 25.18323,-14.26702 0.58745,-0.18285 5.85503,2.335 11.70582,5.59523 l 10.63776,5.92768 -36.01578,20.7978 c -19.80865,11.4388 -36.47777,20.79781 -37.04236,20.79781 -0.56458,0 -16.51639,-8.93761 -35.44856,-19.86136 z"
         style="fill:#333333;stroke:#ffffff"
         inkscape:connector-curvature="0" />
      <path
         id="path4235"
         d="m 366.54156,815.25628 c -19.49502,-11.38518 -35.15968,-21.16278 -34.81034,-21.72801 0.98782,-1.59833 16.50453,-10.10167 18.43331,-10.10167 0.94598,0 13.19486,6.64027 27.21977,14.75616 l 25.49982,14.75615 26.45487,-15.28616 26.45472,-15.28616 9.32918,5.29354 c 5.13112,2.91144 9.34882,5.706 9.37271,6.21013 0.0381,0.79495 -71.32303,42.51711 -72.18486,42.20394 -0.17809,-0.0646 -16.27412,-9.43275 -35.76918,-20.81792 z"
         style="fill:#333333;stroke:#ffffff"
         inkscape:connector-curvature="0" />
      <path
         id="path4233"
         d="m 366.91789,789.93965 c -18.48188,-10.79957 -34.14699,-20.17915 -34.81135,-20.84351 -0.92131,-0.92131 15.53882,-11.67848 22.52805,-14.72274 0.59607,-0.25962 11.30617,5.51158 23.80018,12.82488 12.49407,7.3133 23.44769,13.29692 24.34147,13.29692 0.89393,0 11.85913,-5.93608 24.36727,-13.1913 12.50814,-7.25522 23.04345,-13.19131 23.41164,-13.19131 1.52476,0 23.98032,13.5265 23.93694,14.41886 -0.0689,1.42642 -69.92242,41.29843 -72.11085,41.16079 -1.02292,-0.0643 -16.98146,-8.95302 -35.46335,-19.75259 z"
         style="fill:#333333;stroke:#ffffff"
         inkscape:connector-curvature="0" />
      <path
         id="path4231"
         d="m 366.46063,758.06711 c -20.80379,-12.11995 -34.98488,-21.23867 -34.21965,-22.0039 0.71872,-0.71872 7.36924,-4.79759 14.77895,-9.06414 l 13.47219,-7.75738 22.94596,9.54086 c 35.14472,14.61299 29.97065,14.47153 46.38635,1.26815 7.73728,-6.22323 14.57551,-11.10507 15.19608,-10.84851 3.8976,1.61135 29.46264,16.74793 29.48785,17.45925 0.0293,0.80552 -71.21824,42.53093 -72.1176,42.23543 -0.22205,-0.073 -16.39063,-9.44635 -35.93013,-20.82976 z"
         style="fill:#333333;stroke:#ffffff"
         inkscape:connector-curvature="0" />
      <path
         id="path4229"
         d="m 175.2284,755.80926 -34.75188,-20.01792 -0.0585,-42.24646 -0.0585,-42.24645 8.42778,4.79986 c 4.63528,2.63993 20.62973,11.85107 35.54323,20.46922 l 27.11546,15.66935 0.38891,41.93063 c 0.21389,23.06183 -0.11593,41.86965 -0.73285,41.79515 -0.61697,-0.0745 -16.76011,-9.14352 -35.87365,-20.15338 z"
         style="fill:#333333;stroke:#ffffff"
         inkscape:connector-curvature="0" />
      <path
         id="path4227"
         d="m 593.26102,734.4593 0,-41.63881 35.83183,-20.65346 c 19.70766,-11.3594 36.1968,-20.65347 36.64251,-20.65347 0.44587,0 0.81068,18.73746 0.81068,41.63881 l 0,41.6388 -35.83198,20.65347 c -19.70766,11.3594 -36.19679,20.65346 -36.64251,20.65346 -0.44586,0 -0.81053,-18.73745 -0.81053,-41.6388 z"
         style="fill:#333333;stroke:#ffffff"
         inkscape:connector-curvature="0" />
      <path
         id="path4225"
         d="m 222.83083,759.47989 -7.66925,-4.63444 -0.0257,-31.11236 -0.0256,-31.11233 -3.94774,-2.59878 c -2.17126,-1.42932 -14.20833,-8.54264 -26.74904,-15.80739 l -22.80128,-13.20864 -0.43064,-10.60899 c -0.23686,-5.83495 -0.1725,-10.609 0.14305,-10.609 0.31551,0 16.33885,9.10647 35.60745,20.2366 l 35.03379,20.23662 0.38891,42.05565 c 0.21389,23.13062 -0.11594,41.99758 -0.73285,41.92658 -0.61697,-0.0709 -4.57293,-2.21458 -8.79102,-4.76352 z"
         style="fill:#333333;stroke:#ffffff"
         inkscape:connector-curvature="0" />
      <path
         id="path4223"
         d="m 573.08492,722.51217 0.38914,-42.11974 35.17682,-20.26128 c 19.34724,-11.14371 35.67148,-20.27971 36.27608,-20.30224 0.6046,-0.0226 1.09928,4.49891 1.09928,10.04761 l 0,10.08858 -23.81764,13.61706 c -13.09969,7.48938 -25.63143,14.86661 -27.8483,16.39384 l -4.03068,2.77679 0,31.17982 0,31.1798 -7.67998,4.26362 c -4.224,2.34499 -8.1915,4.48687 -8.81692,4.75974 -0.62527,0.27289 -0.96179,-18.45774 -0.7478,-41.6236 z"
         style="fill:#333333;stroke:#ffffff"
         inkscape:connector-curvature="0" />
      <path
         id="path4221"
         d="m 245.52353,745.22916 -9.89348,-5.936 0,-29.68877 0,-29.68876 -25.28334,-14.57676 -25.28333,-14.57676 -0.42801,-12.22539 c -0.26906,-7.68567 0.11579,-12.03636 1.03626,-11.71631 0.80536,0.28001 16.98089,9.41322 35.94565,20.29605 l 34.48136,19.78696 0.0256,42.13889 c 0.0147,23.17638 -0.13924,42.13528 -0.34082,42.13087 -0.20153,-0.004 -4.81849,-2.67922 -10.2599,-5.94402 z"
         style="fill:#333333;stroke:#ffffff"
         inkscape:connector-curvature="0" />
      <path
         id="path4219"
         d="m 549.63371,709.17876 0.38915,-42.24352 32.24541,-18.62775 c 17.73497,-10.24528 34.05921,-19.68852 36.27608,-20.98501 l 4.03068,-2.35725 0,12.39755 0,12.39757 -22.35193,12.84083 c -12.29357,7.06246 -24.16574,14.0975 -26.38261,15.63342 l -4.03068,2.79259 0,29.03473 c 0,21.49721 -0.47562,29.40148 -1.83212,30.44744 -1.00767,0.77698 -5.63489,3.55024 -10.28262,6.16281 l -8.4505,4.7501 0.38914,-42.24351 z"
         style="fill:#333333;stroke:#ffffff"
         inkscape:connector-curvature="0" />
      <path
         id="path4217"
         d="m 374.13874,722.53538 c -21.76565,-9.1625 -40.23348,-16.93945 -41.03961,-17.28212 -0.84005,-0.35707 -0.48678,-1.65461 0.82759,-3.0397 2.12228,-2.23645 3.32458,-1.98722 16.12271,3.34227 l 13.82941,5.75894 0.46608,-17.07573 0.46607,-17.07572 12.24558,-9.89348 c 6.73504,-5.44141 13.0997,-9.89348 14.14372,-9.89348 2.06619,0 80.52822,32.04561 82.10531,33.53356 0.8589,0.81044 -57.54882,48.73705 -59.00309,48.41512 -0.32451,-0.0718 -18.39806,-7.62715 -40.16377,-16.78966 z"
         style="fill:#333333;stroke:#ffffff"
         inkscape:connector-curvature="0" />
      <path
         id="path4215"
         d="m 267.50903,732.57045 -8.42778,-5.16926 0,-30.47903 0,-30.47902 -26.36402,-15.15971 -26.36402,-15.15972 -0.0186,-11.35918 c -0.0103,-6.24755 0.24621,-11.35918 0.56985,-11.35918 0.32364,0 16.3181,9.1133 35.54324,20.25176 l 34.9548,20.25177 0.38891,42.0405 c 0.21389,23.12229 -0.11594,41.98423 -0.73285,41.91543 -0.61697,-0.0687 -4.91426,-2.45127 -9.54954,-5.29436 z"
         style="fill:#333333;stroke:#ffffff"
         inkscape:connector-curvature="0" />
      <path
         id="path4213"
         d="m 527.64835,696.03926 0.389,-41.95064 35.17681,-20.3177 c 19.34725,-11.17473 35.69919,-20.32846 36.33765,-20.34164 0.6386,-0.0132 0.96838,4.9939 0.73285,11.12681 l -0.42799,11.15073 -24.91691,14.35677 c -13.70429,7.89621 -25.74136,15.10634 -26.74903,16.02251 -1.35152,1.22872 -1.83212,9.51505 -1.83212,31.5846 l 0,29.91886 -8.87277,5.20017 c -4.88005,2.86008 -9.17734,5.20016 -9.54948,5.20016 -0.37229,0 -0.50185,-18.87778 -0.28801,-41.95063 z"
         style="fill:#333333;stroke:#ffffff"
         inkscape:connector-curvature="0" />
      <path
         id="path4211"
         d="m 292.42594,715.19515 -11.35918,-6.61908 0,-27.49458 0,-27.49456 -24.15958,-13.86156 -24.15958,-13.86157 -0.0245,-14.41271 c -0.0132,-7.92701 0.54672,-14.19288 1.24485,-13.92416 0.69813,0.26871 17.18726,9.63767 36.64251,20.81991 l 35.37319,20.33133 0,41.59452 c 0,22.87697 -0.49467,41.58258 -1.09928,41.56802 -0.6046,-0.0146 -6.2109,-3.00506 -12.45845,-6.64556 z"
         style="fill:#333333;stroke:#ffffff"
         inkscape:connector-curvature="0" />
      <path
         id="path4209"
         d="m 499.45619,680.43195 0,-41.43524 35.40106,-20.49061 c 19.47066,-11.26982 35.95979,-20.71046 36.64252,-20.97917 0.68272,-0.26872 1.23221,5.99715 1.22092,13.92416 l -0.0205,14.41271 -20.13286,11.61625 c -11.07307,6.38893 -21.9323,12.85434 -24.13158,14.36756 l -3.99858,2.75131 -0.39852,27.36101 -0.39838,27.36101 -10.99276,6.25855 c -6.04601,3.4422 -11.48742,6.26509 -12.09202,6.27311 -0.60461,0.007 -1.09928,-18.63127 -1.09928,-41.42065 z"
         style="fill:#333333;stroke:#ffffff"
         inkscape:connector-curvature="0" />
      <path
         id="path4207"
         d="m 335.69843,697.33335 -26.71471,-11.13409 -0.40075,-24.30492 -0.40075,-24.30493 -14.24456,-8.06135 -14.24454,-8.06136 -0.046,-15.77595 -0.046,-15.77595 4.76352,1.94081 c 2.61994,1.06744 21.41755,8.81887 41.77247,17.2254 l 37.00893,15.2846 0,42.15514 c 0,23.18532 -0.16489,42.10823 -0.36642,42.05092 -0.20154,-0.0573 -12.38804,-5.11456 -27.08113,-11.23832 z"
         style="fill:#333333;stroke:#ffffff"
         inkscape:connector-curvature="0" />
      <path
         id="path4205"
         d="m 487.73059,653.9372 0,-41.92305 29.31401,-23.52571 29.31401,-23.52571 0,22.38919 -0.0147,22.38918 -24.14302,13.70692 -24.14302,13.70692 -0.39969,25.68107 -0.39955,25.68107 -4.76353,3.67159 -4.76353,3.67159 0,-41.92306 z"
         style="fill:#333333;stroke:#ffffff"
         inkscape:connector-curvature="0" />
      <path
         id="path4203"
         d="m 364.61169,663.97202 0,-9.52706 4.76353,0.10861 c 2.61993,0.0598 7.6815,0.55443 11.24799,1.09928 l 6.48455,0.99063 -10.43696,8.42778 c -5.74037,4.63528 -10.80199,8.42778 -11.24807,8.42778 -0.44607,3e-5 -0.81104,-4.28714 -0.81104,-9.52702 z"
         style="fill:#333333;stroke:#ffffff"
         inkscape:connector-curvature="0" />
      <path
         id="path4201"
         d="m 400.88783,656.25028 -36.27614,-5.15963 0,-14.23402 0,-14.234 -12.09203,-5.09822 -12.09203,-5.09822 -0.40242,-24.5517 -0.40244,-24.55169 4.06669,0.7864 c 2.23667,0.43253 25.00787,3.59589 50.60272,7.0297 l 46.53599,6.2433 0,42.19564 c 0,32.87631 -0.40468,42.15548 -1.83212,42.01385 -1.00767,-0.1 -18.15637,-2.50361 -38.10822,-5.34141 z"
         style="fill:#333333;stroke:#ffffff"
         inkscape:connector-curvature="0" />
      <path
         id="path4199"
         d="m 443.73158,615.48176 -0.0279,-39.45177 10.65432,-26.00279 10.65433,-26.00277 0.38973,39.46998 0.38987,39.46998 -10.4415,25.37387 c -5.74291,13.95562 -10.7002,25.64867 -11.01621,25.98457 -0.316,0.33588 -0.58716,-17.1426 -0.60255,-38.84107 z"
         style="fill:#333333;stroke:#ffffff"
         inkscape:connector-curvature="0" />
      <path
         id="path4197"
         d="m 259.08125,558.79614 0,-41.77546 29.31401,-23.69385 29.31401,-23.69384 -0.0255,42.20574 -0.0255,42.20575 -26.4341,21.25266 c -14.53875,11.68896 -27.71857,22.15756 -29.28846,23.26355 -2.80905,1.97892 -2.85446,1.34638 -2.85446,-39.76455 z"
         style="fill:#333333;stroke:#ffffff"
         inkscape:connector-curvature="0" />
      <path
         id="path4195"
         d="m 390.73024,568.15948 c -26.34464,-3.73256 -48.27178,-7.16783 -48.72697,-7.63392 -0.69574,-0.71236 3.40859,-11.19395 20.38173,-52.05054 l 1.88184,-4.52987 23.99003,3.40093 c 13.19453,1.87051 26.6284,3.74322 29.85294,4.16159 3.22455,0.41835 14.43715,1.86145 24.91691,3.20686 10.47976,1.34543 19.5885,2.90301 20.24177,3.46133 1.5488,1.32392 -21.12427,57.17567 -23.11733,56.9457 -0.83691,-0.0966 -23.07628,-3.22949 -49.42092,-6.96208 z"
         style="fill:#333333;stroke:#ffffff"
         inkscape:connector-curvature="0" />
      <path
         id="path4193"
         d="m 496.52479,563.70139 -27.11546,-11.38119 -0.73285,-18.18143 -0.73285,-18.18142 -7.3285,-1.17553 c -4.03068,-0.64653 -9.47209,-1.50561 -12.09203,-1.90907 l -4.76353,-0.73357 0,-11.54585 0,-11.54585 7.69493,-6.45955 c 4.23221,-3.55275 10.06951,-8.22366 12.97174,-10.37981 l 5.27696,-3.92026 28.80058,11.90698 28.80072,11.90697 0,41.59766 c 0,32.35821 -0.40703,41.57384 -1.83213,41.49039 -1.00767,-0.0591 -14.03408,-5.22882 -28.94758,-11.48847 z"
         style="fill:#333333;stroke:#ffffff"
         inkscape:connector-curvature="0" />
      <path
         id="path4191"
         d="m 232.69865,526.46202 0,-41.50661 35.37673,-20.41923 c 19.45719,-11.23058 35.94632,-20.63909 36.64251,-20.9078 0.69618,-0.26872 1.26578,7.04995 1.26578,16.26369 l 0,16.75226 -24.91691,20.06712 -24.91691,20.06711 0,19.44061 0,19.44062 -10.81701,6.15443 c -5.94937,3.38493 -11.22589,6.15442 -11.72561,6.15442 -0.49973,0 -0.90858,-18.67798 -0.90858,-41.50662 z"
         style="fill:#333333;stroke:#ffffff"
         inkscape:connector-curvature="0" />
      <path
         id="path4189"
         d="m 553.60034,557.9916 c -9.31819,-5.39547 -18.70205,-10.96963 -20.85311,-12.38705 l -3.91107,-2.57714 -0.39941,-26.53643 -0.3994,-26.53645 -14.29058,-5.89859 -14.29058,-5.8986 0,-17.38662 c 0,-9.56264 0.35177,-17.38662 0.78195,-17.38662 0.43004,0 16.91917,9.29995 36.64251,20.66656 l 35.86056,20.66658 0,41.62569 c 0,22.89414 -0.49467,41.5881 -1.09927,41.54215 -0.6046,-0.046 -8.72326,-4.49803 -18.0416,-9.89348 z"
         style="fill:#333333;stroke:#ffffff"
         inkscape:connector-curvature="0" />
      <path
         id="path4187"
         d="m 587.82474,546.26091 -12.03194,-6.87343 -0.42652,-27.84831 -0.42652,-27.84831 -21.9855,-12.74686 c -12.09203,-7.01078 -22.84148,-13.27665 -23.88755,-13.92416 -1.39886,-0.86589 -1.78654,-4.9407 -1.4657,-15.40545 l 0.43634,-14.22817 36.26319,20.82383 36.26319,20.8238 0.0146,42.13889 c 0,23.17639 -0.15199,42.09899 -0.35352,42.05025 -0.20154,-0.0488 -5.78073,-3.1817 -12.39836,-6.96208 z"
         style="fill:#333333;stroke:#ffffff"
         inkscape:connector-curvature="0" />
      <path
         id="path4185"
         d="m 206.31604,510.19362 0,-41.65231 30.91225,-17.83619 c 17.00173,-9.8099 33.16108,-19.16303 35.90966,-20.78474 l 4.99741,-2.94854 0,14.68784 0,14.68786 -23.45121,13.50976 -23.4512,13.50976 0,27.5155 0,27.51551 -11.65732,6.72393 c -6.41152,3.69817 -12.01782,6.72393 -12.45845,6.72393 -0.44062,0 -0.80114,-18.74354 -0.80114,-41.65231 z"
         style="fill:#333333;stroke:#ffffff"
         inkscape:connector-curvature="0" />
      <path
         id="path4183"
         d="m 184.33053,497.84303 0,-42.10129 4.03068,-2.37107 c 2.21687,-1.30409 18.37622,-10.64649 35.90966,-20.76088 l 31.87898,-18.38982 0,11.55203 0,11.55204 -26.33475,15.12206 -26.33477,15.12205 -0.0614,30.77971 -0.0614,30.77971 -9.5135,5.40838 -9.51348,5.40838 0,-42.1013 z"
         style="fill:#333333;stroke:#ffffff"
         inkscape:connector-curvature="0" />
      <path
         id="path4181"
         d="m 612.31513,534.59059 -9.52706,-5.53884 -0.39793,-30.74179 -0.3978,-30.74181 -26.35124,-15.21294 -26.35109,-15.21293 0,-11.70468 0,-11.70465 3.29782,2.11239 c 1.81381,1.1618 18.04131,10.59532 36.06107,20.96336 18.01991,10.36803 33.03572,19.56058 33.36858,20.42789 0.33271,0.86732 0.42945,19.87301 0.21487,42.23488 l -0.39017,40.65794 -9.52705,-5.53882 z"
         style="fill:#333333;stroke:#ffffff"
         inkscape:connector-curvature="0" />
      <path
         id="path4179"
         d="m 634.70634,520.62333 -10.5869,-6.15276 -0.40585,-30.03383 -0.40571,-30.03383 -25.28333,-14.58048 -25.28334,-14.5805 0,-12.32635 0,-12.32635 4.76353,2.76887 c 2.61994,1.52288 19.10233,10.98683 36.62756,21.031 l 31.86418,18.26215 0.0147,42.13888 c 0.0147,23.17639 -0.15009,42.10449 -0.35162,42.06243 -0.20153,-0.0421 -5.13054,-2.84521 -10.95333,-6.22923 z"
         style="fill:#333333;stroke:#ffffff"
         inkscape:connector-curvature="0" />
      <path
         id="path4177"
         d="m 160.87932,483.85701 0,-41.6063 31.14614,-18.04224 c 17.13037,-9.92325 33.28972,-19.29708 35.90966,-20.83074 l 4.76353,-2.7885 0,12.43304 0,12.43304 -25.28334,14.53529 -25.28333,14.53531 -0.39526,30.04315 -0.39527,30.04315 -9.43329,5.42556 c -5.1883,2.98405 -9.79228,5.42555 -10.23106,5.42555 -0.43878,0 -0.79778,-18.72284 -0.79778,-41.60631 z"
         style="fill:#333333;stroke:#ffffff"
         inkscape:connector-curvature="0" />
      <path
         id="path4175"
         d="m 656.66268,509.57135 -9.15037,-5.36069 -0.0147,-31.5531 -0.0146,-31.55311 -26.74904,-15.3493 -26.74903,-15.34932 -0.43355,-10.77084 c -0.23847,-5.92397 0.15463,-10.54092 0.87355,-10.2599 0.71908,0.28101 17.2384,9.71759 36.70964,20.97015 l 35.40253,20.45922 0,42.19948 c 0,23.20972 -0.16489,42.13842 -0.36642,42.06378 -0.20154,-0.0746 -4.48417,-2.548 -9.51694,-5.49637 z"
         style="fill:#333333;stroke:#ffffff"
         inkscape:connector-curvature="0" />
      <path
         id="path4173"
         d="m 140.70325,471.9089 0.38912,-42.08825 27.11546,-15.64692 c 14.9135,-8.60581 30.90795,-17.8044 35.54323,-20.44131 l 8.42778,-4.79438 -0.0201,10.7339 -0.0201,10.73389 -27.06168,15.38986 -27.06168,15.38985 -0.0337,31.64605 -0.0336,31.64604 -7.6799,4.26362 c -4.22395,2.34499 -8.19156,4.48687 -8.8169,4.75974 -0.62534,0.27289 -0.96188,-18.44357 -0.74787,-41.59209 z"
         style="fill:#333333;stroke:#ffffff"
         inkscape:connector-curvature="0" />
      <path
         id="path4171"
         d="m 428.68294,510.26619 -9.94654,-1.65842 8.39817,-6.59566 c 15.09144,-11.8524 13.6936,-11.84391 13.6936,-0.0831 0,5.68865 -0.49467,10.26484 -1.09927,10.16931 -0.60461,-0.0956 -5.57524,-0.91999 -11.04596,-1.83213 z"
         style="fill:#333333;stroke:#ffffff"
         inkscape:connector-curvature="0" />
      <path
         id="path4169"
         d="m 373.01574,492.03474 c -22.3833,-9.34764 -40.5172,-17.53486 -40.29755,-18.19383 0.21965,-0.65895 6.89486,-6.3765 14.83382,-12.70567 l 14.43443,-11.50758 19.80771,11.53522 c 10.89426,6.34437 20.43172,11.53522 21.19447,11.53522 0.76275,0 9.09394,-4.52474 18.51385,-10.05499 9.41991,-5.53024 18.68563,-10.86983 20.59045,-11.86574 3.0107,-1.57414 5.2135,-1.09536 16.85556,3.66353 7.36573,3.01086 13.83988,5.87708 14.38702,6.36936 0.88646,0.79752 -57.66139,48.75666 -59.05585,48.37529 -0.31191,-0.0853 -18.88057,-7.80316 -41.26391,-17.15081 z"
         style="fill:#333333;stroke:#ffffff"
         inkscape:connector-curvature="0" />
      <path
         id="path4167"
         d="m 366.95196,450.21924 c -19.81997,-11.41761 -36.03552,-21.08908 -36.03457,-21.49215 9.5e-4,-0.40307 1.81136,-1.75305 4.02313,-2.99997 2.21178,-1.24691 7.6645,-4.34276 12.11715,-6.87967 l 8.09574,-4.61256 23.86002,13.74554 23.85999,13.74555 23.00798,-13.32309 c 12.65442,-7.32769 23.74288,-13.33041 24.64106,-13.33938 1.93678,-0.0194 23.9727,12.57634 23.99879,13.71765 0.0147,0.43279 -6.41273,4.48198 -14.27255,8.99817 -7.85982,4.51619 -23.95878,13.83355 -35.77555,20.70523 l -21.48482,12.49397 -36.03637,-20.75929 z"
         style="fill:#333333;stroke:#ffffff"
         inkscape:connector-curvature="0" />
      <path
         id="path4165"
         d="m 367.3321,418.8128 c -19.06023,-11.07291 -34.62272,-20.79213 -34.58332,-21.59827 0.0737,-1.50941 14.88245,-10.99275 17.16567,-10.99275 0.70326,0 12.62616,6.59565 26.49531,14.657 13.86919,8.06135 25.73521,14.65701 26.36897,14.65701 0.63392,0 12.57777,-6.59566 26.54223,-14.65701 13.96431,-8.06135 26.05869,-14.63371 26.87625,-14.60525 0.81757,0.0284 5.5298,2.51535 10.47155,5.5264 l 8.98519,5.47464 -34.63494,20.03617 c -19.04913,11.01989 -35.62415,20.39583 -36.83335,20.83541 -1.25405,0.45586 -17.08714,-7.85013 -36.85356,-19.33335 z"
         style="fill:#333333;stroke:#ffffff"
         inkscape:connector-curvature="0" />
      <path
         id="path4163"
         d="m 366.97485,393.03818 c -19.81952,-11.40731 -36.0364,-21.07034 -36.0375,-21.47341 -10e-4,-0.77028 17.2245,-10.70522 19.75018,-11.39034 0.80614,-0.21866 12.89938,6.19792 26.87397,14.25911 l 25.40807,14.6567 23.97373,-13.90583 c 13.18544,-7.64822 24.95589,-14.28284 26.15674,-14.7436 1.99013,-0.76372 21.34558,9.34125 21.4111,11.17821 0.0161,0.43289 -4.09414,3.16318 -9.13249,6.06729 -5.03834,2.90413 -21.13232,12.21297 -35.76455,20.68633 l -26.60379,15.40608 -36.03546,-20.74054 z"
         style="fill:#333333;stroke:#ffffff"
         inkscape:connector-curvature="0" />
      <path
         id="path4161"
         d="m 367.54309,366.30291 c -18.94418,-10.92832 -34.99175,-20.40216 -35.66127,-21.05296 -1.27454,-1.23891 13.37919,-10.32769 16.65121,-10.32769 1.03717,0 13.28357,6.59565 27.21422,14.65701 13.93061,8.06135 26.1931,14.64583 27.24987,14.63217 1.05677,-0.0132 13.7235,-6.84526 28.14819,-15.18136 l 26.22696,-15.15653 9.21368,5.26842 c 5.06751,2.89763 9.09497,5.38107 8.94986,5.51876 -1.08769,1.03245 -71.9848,41.55562 -72.66972,41.53645 -0.48353,-0.0132 -16.37876,-8.96595 -35.323,-19.89427 z"
         style="fill:#333333;stroke:#ffffff"
         inkscape:connector-curvature="0" />
      <path
         id="path4157"
         d="m 367.43243,342.54924 c -19.00509,-11.04699 -34.7297,-20.745 -34.94362,-21.55113 -0.44817,-1.68887 68.69993,-41.99006 71.06499,-41.41835 1.90013,0.45935 72.57782,41.09462 72.07391,41.43802 -2.63635,1.79645 -72.62516,41.73393 -73.0511,41.68484 -0.32421,-0.0374 -16.13912,-9.10638 -35.14421,-20.15338 z"
         style="fill:#333333;stroke:#ffffff"
         inkscape:connector-curvature="0" />
    </g>
  </g>
</svg>
